<svg version="1.1" viewBox="0.0 0.0 728.0 122.0" fill="none" stroke="none" stroke-linecap="square" stroke-miterlimit="10" xmlns:xlink="http://www.w3.org/1999/xlink" xmlns="http://www.w3.org/2000/svg"><clipPath id="p.0"><path d="m0 0l728.0 0l0 122.0l-728.0 0l0 -122.0z" clip-rule="nonzero"/></clipPath><g clip-path="url(#p.0)"><path fill="#000000" fill-opacity="0.0" d="m0 0l728.0 0l0 122.0l-728.0 0z" fill-rule="evenodd"/><path fill="#000000" fill-opacity="0.0" d="m-25.727034 -41.564304l735.31274 0l0 185.05487l-735.31274 0z" fill-rule="evenodd"/><path fill="#ffffff" d="m40.07164 9.966946q-7.078125 0.53125 -10.671873 4.46875q-3.59375 3.9375 -3.59375 11.796875l0 4.265625l14.796873 0q2.265625 0 3.453125 1.203125q1.203125 1.203125 1.203125 3.203125q0 2.0 -1.203125 3.078125q-1.1875 1.0625 -3.453125 1.0625l-14.796873 0l0 51.718746q0 2.53125 -1.546875 3.9375q-1.53125 1.40625 -3.796875 1.40625q-2.390625 0 -3.9375 -1.40625q-1.531251 -1.40625 -1.531251 -3.9375l0 -51.718746l-8.921875 0q-2.265625 0 -3.546875 -1.140625q-1.2656251 -1.140625 -1.2656251 -3.0q0 -2.0 1.2656251 -3.203125q1.28125 -1.203125 3.546875 -1.203125l8.921875 0l0 -2.390625q0 -12.0 6.000001 -18.859375q6.0 -6.875 17.203123 -7.671875l3.46875 -0.265625q3.46875 -0.265625 5.0 0.671875q1.53125 0.9218751 1.53125 3.328125q0 3.859375 -4.671875 4.390625l-3.453125 0.265625z" fill-rule="nonzero"/><path fill="#ffffff" d="m77.11214 96.10757q-2.40625 0 -3.9375 -1.40625q-1.53125 -1.40625 -1.53125 -3.9375l0 -84.65625q0 -2.53125 1.53125 -3.921875q1.53125 -1.40625 3.9375 -1.40625q2.265625 0 3.796875 1.40625q1.53125 1.390625 1.53125 3.921875l0 84.65625q0 2.53125 -1.53125 3.9375q-1.53125 1.40625 -3.796875 1.40625z" fill-rule="nonzero"/><path fill="#ffffff" d="m140.51833 96.37319q-9.203125 0 -16.203125 -4.125q-7.0 -4.140625 -10.796875 -11.8125q-3.796875 -7.671875 -3.796875 -17.796871q0 -10.140625 3.796875 -17.796875q3.796875 -7.671875 10.796875 -11.796875q7.0 -4.140625 16.203125 -4.140625q9.1875 0 16.25 4.140625q7.078125 4.125 10.875 11.796875q3.796875 7.65625 3.796875 17.796875q0 10.124996 -3.796875 17.796871q-3.796875 7.671875 -10.875 11.8125q-7.0625 4.125 -16.25 4.125zm0 -8.9375q9.59375 0 14.71875 -6.328125q5.140625 -6.34375 5.140625 -18.468746q0 -11.875 -5.203125 -18.328125q-5.203125 -6.46875 -14.65625 -6.46875q-9.46875 0 -14.671875 6.46875q-5.203125 6.453125 -5.203125 18.328125q0 11.999996 5.125 18.406246q5.140625 6.390625 14.75 6.390625z" fill-rule="nonzero"/><path fill="#ffffff" d="m225.11452 28.904446q24.40625 0 24.40625 25.59375l0 36.26562q0 2.40625 -1.40625 3.875q-1.40625 1.46875 -3.796875 1.46875q-2.40625 0 -3.875 -1.46875q-1.46875 -1.46875 -1.46875 -3.875l0 -6.390625q-2.53125 5.734375 -7.734375 8.875q-5.1875 3.125 -11.984375 3.125q-6.265625 0 -11.546875 -2.53125q-5.265625 -2.546875 -8.328125 -7.078125q-3.0625 -4.53125 -3.0625 -10.0q0 -7.328125 3.734375 -11.390625q3.734375 -4.062496 12.265625 -5.859371q8.53125 -1.8125 23.734375 -1.8125l2.921875 0l0 -4.390625q0 -8.0 -3.265625 -11.734375q-3.265625 -3.734375 -10.59375 -3.734375q-9.0625 0 -18.40625 4.921875q-3.59375 2.28125 -5.0625 2.28125q-1.59375 0 -2.671875 -1.203125q-1.0625 -1.203125 -1.0625 -3.078125q0 -1.859375 1.125 -3.25q1.140625 -1.40625 3.671875 -2.875q4.671875 -2.671875 10.609375 -4.203125q5.9375 -1.53125 11.796875 -1.53125zm-4.40625 58.937496q8.0 0 13.125 -5.40625q5.140625 -5.40625 5.140625 -13.9375l0 -3.859375l-2.390625 0q-11.734375 0 -17.875 1.0q-6.125 1.0 -8.734375 3.34375q-2.59375 2.328125 -2.59375 6.859375q0 5.1875 3.796875 8.59375q3.8125 3.40625 9.53125 3.40625z" fill-rule="nonzero"/><path fill="#ffffff" d="m313.00586 87.57632q4.671875 0.390625 4.671875 4.265625q0 2.265625 -1.671875 3.40625q-1.671875 1.125 -5.0 0.859375l-3.59375 -0.265625q-10.671875 -0.8125 -15.75 -6.40625q-5.0625 -5.59375 -5.0625 -16.9375l0 -33.45312l-8.921875 0q-2.265625 0 -3.546875 -1.140625q-1.265625 -1.140625 -1.265625 -3.0q0 -2.0 1.265625 -3.203125q1.28125 -1.203125 3.546875 -1.203125l8.921875 0l0 -15.0625q0 -2.53125 1.46875 -3.921875q1.46875 -1.40625 4.0 -1.40625q2.40625 0 3.875 1.40625q1.46875 1.390625 1.46875 3.921875l0 15.0625l14.796875 0q2.125 0 3.390625 1.203125q1.265625 1.203125 1.265625 3.203125q0 1.859375 -1.265625 3.0q-1.265625 1.140625 -3.390625 1.140625l-14.796875 0l0 33.98437q0 7.34375 3.0 10.609375q3.0 3.265625 9.0 3.65625l3.59375 0.28125z" fill-rule="nonzero"/><path fill="#ffffff" d="m377.5213 28.904446q8.53125 0 15.0625 4.265625q6.53125 4.265625 10.125 11.9375q3.609375 7.65625 3.609375 17.796875q0 10.124996 -3.609375 17.671871q-3.59375 7.53125 -10.0625 11.671875q-6.46875 4.125 -15.125 4.125q-7.609375 0 -13.28125 -3.328125q-5.65625 -3.34375 -8.59375 -9.46875l0 31.328125q0 2.390625 -1.40625 3.796875q-1.390625 1.40625 -3.921875 1.40625q-2.53125 0 -4.0 -1.46875q-1.46875 -1.46875 -1.46875 -3.734375l0 -80.40625q0 -2.390625 1.46875 -3.859375q1.46875 -1.46875 4.0 -1.46875q2.53125 0 3.921875 1.46875q1.40625 1.46875 1.40625 3.859375l0 7.203125q2.9375 -6.125 8.59375 -9.453125q5.671875 -3.34375 13.28125 -3.34375zm-2.140625 58.531246q9.46875 0 14.65625 -6.390625q5.203125 -6.40625 5.203125 -18.140621q0 -11.734375 -5.203125 -18.328125q-5.1875 -6.609375 -14.65625 -6.609375q-9.46875 0 -14.609375 6.40625q-5.125 6.390625 -5.125 18.265625q0 11.859371 5.125 18.328121q5.140625 6.46875 14.609375 6.46875z" fill-rule="nonzero"/><path fill="#ffffff" d="m460.38922 96.37319q-9.203125 0 -16.203125 -4.125q-7.0 -4.140625 -10.796875 -11.8125q-3.796875 -7.671875 -3.796875 -17.796871q0 -10.140625 3.796875 -17.796875q3.796875 -7.671875 10.796875 -11.796875q7.0 -4.140625 16.203125 -4.140625q9.1875 0 16.25 4.140625q7.078125 4.125 10.8749695 11.796875q3.796875 7.65625 3.796875 17.796875q0 10.124996 -3.796875 17.796871q-3.7968445 7.671875 -10.8749695 11.8125q-7.0625 4.125 -16.25 4.125zm0 -8.9375q9.59375 0 14.71875 -6.328125q5.140625 -6.34375 5.140625 -18.468746q0 -11.875 -5.203125 -18.328125q-5.203125 -6.46875 -14.65625 -6.46875q-9.46875 0 -14.671875 6.46875q-5.203125 6.453125 -5.203125 18.328125q0 11.999996 5.125 18.406246q5.140625 6.390625 14.75 6.390625z" fill-rule="nonzero"/><path fill="#ffffff" d="m523.92285 96.10757q-2.40625 0 -3.9375 -1.40625q-1.53125 -1.40625 -1.53125 -3.9375l0 -56.26562q0 -2.53125 1.53125 -3.921875q1.53125 -1.40625 3.9375 -1.40625q2.390625 0 3.859375 1.40625q1.46875 1.390625 1.46875 3.921875l0 56.26562q0 2.671875 -1.46875 4.015625q-1.46875 1.328125 -3.859375 1.328125zm0 -80.9375q-3.203125 0 -5.203125 -1.859375q-2.0 -1.875 -2.0 -4.9375q0 -2.9375 2.0 -4.796875q2.0 -1.8750001 5.203125 -1.8750001q3.203125 0 5.203125 1.8750001q2.0 1.859375 2.0 4.796875q0 3.0625 -2.0 4.9375q-2.0 1.859375 -5.203125 1.859375z" fill-rule="nonzero"/><path fill="#ffffff" d="m593.0635 28.904446q23.328125 0 23.328125 25.734375l0 36.124996q0 2.53125 -1.40625 3.9375q-1.390625 1.40625 -3.921875 1.40625q-2.546875 0 -4.015625 -1.40625q-1.453125 -1.40625 -1.453125 -3.9375l0 -35.45312q0 -9.078125 -3.546875 -13.203125q-3.53125 -4.140625 -11.25 -4.140625q-8.9375 0 -14.28125 5.46875q-5.328125 5.46875 -5.328125 14.796875l0 32.531246q0 2.53125 -1.40625 3.9375q-1.390625 1.40625 -3.921875 1.40625q-2.53125 0 -4.0 -1.40625q-1.46875 -1.40625 -1.46875 -3.9375l0 -56.26562q0 -2.390625 1.46875 -3.859375q1.46875 -1.46875 4.0 -1.46875q2.390625 0 3.796875 1.46875q1.40625 1.46875 1.40625 3.734375l0 6.796875q3.1875 -6.0 8.921875 -9.125q5.734375 -3.140625 13.078125 -3.140625z" fill-rule="nonzero"/><path fill="#ffffff" d="m677.1273 87.57632q4.671875 0.390625 4.671875 4.265625q0 2.265625 -1.671875 3.40625q-1.671875 1.125 -5.0 0.859375l-3.59375 -0.265625q-10.671875 -0.8125 -15.75 -6.40625q-5.0625 -5.59375 -5.0625 -16.9375l0 -33.45312l-8.921875 0q-2.265625 0 -3.546875 -1.140625q-1.265625 -1.140625 -1.265625 -3.0q0 -2.0 1.265625 -3.203125q1.28125 -1.203125 3.546875 -1.203125l8.921875 0l0 -15.0625q0 -2.53125 1.46875 -3.921875q1.46875 -1.40625 4.0 -1.40625q2.40625 0 3.875 1.40625q1.46875 1.390625 1.46875 3.921875l0 15.0625l14.796875 0q2.125 0 3.390625 1.203125q1.265625 1.203125 1.265625 3.203125q0 1.859375 -1.265625 3.0q-1.265625 1.140625 -3.390625 1.140625l-14.796875 0l0 33.98437q0 7.34375 3.0 10.609375q3.0 3.265625 9.0 3.65625l3.59375 0.28125z" fill-rule="nonzero"/><path fill="#ffffff" d="m704.6982 91.419945l0 0c0 -3.7920609 3.0529175 -6.8661423 6.8189087 -6.8661423l0 0c1.8084717 0 3.5428467 0.7233963 4.8216553 2.0110474c1.2788086 1.2876511 1.9971924 3.0340805 1.9971924 4.855095l0 0c0 3.7920685 -3.0529175 6.8661423 -6.8188477 6.8661423l0 0c-3.7659912 0 -6.8189087 -3.0740738 -6.8189087 -6.8661423z" fill-rule="evenodd"/></g></svg>