<svg version="1.1" viewBox="0.0 0.0 1157.0 226.0" fill="none" stroke="none" stroke-linecap="square" stroke-miterlimit="10" xmlns:xlink="http://www.w3.org/1999/xlink" xmlns="http://www.w3.org/2000/svg"><clipPath id="p.0"><path d="m0 0l1157.0 0l0 226.0l-1157.0 0l0 -226.0z" clip-rule="nonzero"/></clipPath><g clip-path="url(#p.0)"><path fill="#000000" fill-opacity="0.0" d="m0 0l1157.0 0l0 226.0l-1157.0 0z" fill-rule="evenodd"/><path fill="#000000" fill-opacity="0.0" d="m-22.472513 -22.0l1129.4803 0l0 384.0l-1129.4803 0z" fill-rule="evenodd"/><path fill="#ffffff" d="m78.04836 78.01936q0 11.828125 -11.625 11.828125l-6.515625 0q-6.90625 0 -11.671875 1.828125q-4.75 1.828125 -7.671875 4.65625q-2.90625 2.828125 -4.25 6.453125q-1.328125 3.625 -1.328125 7.484375l0 43.9375q0 4.703125 -0.875 8.15625q-0.859375 3.453125 -3.109377 5.796875q-2.25 2.328125 -5.46875 3.171875q-3.203125 0.828125 -7.15625 0.828125q-6.671875 0 -9.296875 -3.625q-2.625 -3.640625 -2.625 -9.640625l0 -80.78125q0 -6.40625 3.125 -9.453125q3.125 -3.046875 9.375 -3.046875q7.53125 0 11.59375 5.59375q4.062502 5.578125 4.062502 15.328125l-3.703127 4.515625l-0.375 -0.28125q-1.3125 -4.453125 1.5468769 -8.4375q2.859375 -4.0 7.09375 -7.75q4.234375 -3.765625 10.03125 -6.359375q5.8125 -2.609375 13.28125 -2.609375l2.296875 0q6.578125 0 9.78125 3.21875q3.21875 3.21875 3.484375 9.1875z" fill-rule="nonzero"/><path fill="#ffffff" d="m170.3352 140.83186q1.515625 -1.84375 3.640625 -2.78125q2.125 -0.9375 4.421875 -0.9375q3.1875 0 5.875 2.234375q2.703125 2.21875 2.703125 5.953125q0 5.09375 -3.421875 9.28125q-14.328125 17.578125 -39.234375 17.578125q-12.21875 0 -21.703117 -3.484375q-9.484375 -3.5 -15.921875 -10.25q-6.4375 -6.75 -9.609375 -16.15625q-3.15625 -9.40625 -3.15625 -20.984375q0 -26.921875 12.84375 -41.296875q12.84375 -14.375 37.171867 -14.375q9.59375 0 17.5625 2.859375q7.984375 2.84375 13.796875 8.5q5.8125 5.640625 8.921875 13.796875q3.125 8.140625 3.125 18.359375q0 13.640625 -15.171875 13.640625l-51.968742 -3.21875q3.203125 0.234375 3.15625 1.21875q-0.03125 0.984375 -0.03125 2.234375q0 7.9375 1.46875 14.078125q1.484375 6.125 4.3124924 10.125q2.828125 3.984375 7.046875 6.09375q4.234375 2.09375 10.265625 2.09375q5.03125 0 8.53125 -1.265625q3.5 -1.265625 5.984375 -3.09375q2.484375 -1.84375 4.328125 -4.046875q1.859375 -2.203125 3.25 -3.875l1.8125 -2.28125zm-27.640625 -59.203125q-7.421875 0 -12.4375 6.703125q-5.0156174 6.6875 -5.8437424 18.0625l32.249992 0q2.03125 0 2.28125 -0.1875q0.25 -0.203125 0.25 -1.484375q0 -5.9375 -1.453125 -10.34375q-1.453125 -4.40625 -3.75 -7.203125q-2.296875 -2.796875 -5.203125 -4.171875q-2.890625 -1.375 -6.09375 -1.375z" fill-rule="nonzero"/><path fill="#ffffff" d="m211.71555 76.78499q0 -8.828125 10.078125 -9.4375l7.3125 0q0.234375 -5.921875 1.796875 -13.21875q1.5625 -7.3125 3.9062347 -12.765625q2.34375 -5.46875 5.375 -9.234375q3.03125 -3.78125 6.125 -6.34375q13.000015 -10.703125 31.031265 -10.703125q4.71875 0 8.78125 1.046875q4.0625 1.046875 7.203125 2.890625q3.140625 1.828125 5.234375 4.625q2.09375 2.78125 2.09375 6.234375q0 4.984375 -3.328125 7.984375q-3.3125 2.984375 -8.609375 2.984375q-6.046875 0 -11.953125 -7.234375q-1.0625 -1.3125 -2.65625 -1.953125q-1.59375 -0.65625 -3.5625 -0.65625q-2.484375 0 -4.71875 0.890625q-2.21875 0.890625 -4.078125 3.296875q-1.84375 2.390625 -3.15625 7.140625q-1.296875 4.75 -1.296875 12.4375l0 12.578125l17.75 0q4.78125 0 7.8125 2.265625q3.046875 2.25 3.046875 6.109375q0 4.03125 -3.171875 6.640625q-3.15625 2.609375 -7.6875 2.609375l-17.75 0l0 69.8125q0 4.71875 -0.890625 8.125q-0.87501526 3.390625 -3.1875153 5.625q-2.3125 2.234375 -5.484375 2.9375q-3.171875 0.6875 -7.046875 0.6875q-6.421875 0 -9.187485 -3.59375q-2.75 -3.59375 -2.75 -9.671875l0 -73.921875l-6.640625 0q-10.390625 0 -10.390625 -8.1875z" fill-rule="nonzero"/><path fill="#ffffff" d="m386.37766 140.83186q1.515625 -1.84375 3.640625 -2.78125q2.125 -0.9375 4.421875 -0.9375q3.1875 0 5.875 2.234375q2.703125 2.21875 2.703125 5.953125q0 5.09375 -3.421875 9.28125q-14.328125 17.578125 -39.234375 17.578125q-12.21875 0 -21.703125 -3.484375q-9.484375 -3.5 -15.921875 -10.25q-6.4375 -6.75 -9.609375 -16.15625q-3.15625 -9.40625 -3.15625 -20.984375q0 -26.921875 12.84375 -41.296875q12.84375 -14.375 37.171875 -14.375q9.59375 0 17.5625 2.859375q7.984375 2.84375 13.796875 8.5q5.8125 5.640625 8.921875 13.796875q3.125 8.140625 3.125 18.359375q0 13.640625 -15.171875 13.640625l-51.96875 -3.21875q3.203125 0.234375 3.15625 1.21875q-0.03125 0.984375 -0.03125 2.234375q0 7.9375 1.46875 14.078125q1.484375 6.125 4.3125 10.125q2.828125 3.984375 7.046875 6.09375q4.234375 2.09375 10.265625 2.09375q5.03125 0 8.53125 -1.265625q3.5 -1.265625 5.984375 -3.09375q2.484375 -1.84375 4.328125 -4.046875q1.859375 -2.203125 3.25 -3.875l1.8125 -2.28125zm-27.640625 -59.203125q-7.421875 0 -12.4375 6.703125q-5.015625 6.6875 -5.84375 18.0625l32.25 0q2.03125 0 2.28125 -0.1875q0.25 -0.203125 0.25 -1.484375q0 -5.9375 -1.453125 -10.34375q-1.453125 -4.40625 -3.75 -7.203125q-2.296875 -2.796875 -5.203125 -4.171875q-2.890625 -1.375 -6.09375 -1.375z" fill-rule="nonzero"/><path fill="#ffffff" d="m506.37155 78.01936q0 11.828125 -11.625 11.828125l-6.515625 0q-6.90625 0 -11.671875 1.828125q-4.75 1.828125 -7.671875 4.65625q-2.90625 2.828125 -4.25 6.453125q-1.328125 3.625 -1.328125 7.484375l0 43.9375q0 4.703125 -0.875 8.15625q-0.859375 3.453125 -3.109375 5.796875q-2.25 2.328125 -5.46875 3.171875q-3.203125 0.828125 -7.15625 0.828125q-6.671875 0 -9.296875 -3.625q-2.625 -3.640625 -2.625 -9.640625l0 -80.78125q0 -6.40625 3.125 -9.453125q3.125 -3.046875 9.375 -3.046875q7.53125 0 11.59375 5.59375q4.0625 5.578125 4.0625 15.328125l-3.703125 4.515625l-0.375 -0.28125q-1.3125 -4.453125 1.546875 -8.4375q2.859375 -4.0 7.09375 -7.75q4.234375 -3.765625 10.03125 -6.359375q5.8125 -2.609375 13.28125 -2.609375l2.296875 0q6.578125 0 9.78125 3.21875q3.21875 3.21875 3.484375 9.1875z" fill-rule="nonzero"/><path fill="#ffffff" d="m607.7797 78.01936q0 11.828125 -11.625 11.828125l-6.515625 0q-6.90625 0 -11.671875 1.828125q-4.75 1.828125 -7.671875 4.65625q-2.90625 2.828125 -4.25 6.453125q-1.328125 3.625 -1.328125 7.484375l0 43.9375q0 4.703125 -0.875 8.15625q-0.859375 3.453125 -3.109375 5.796875q-2.25 2.328125 -5.46875 3.171875q-3.203125 0.828125 -7.15625 0.828125q-6.671875 0 -9.296875 -3.625q-2.625 -3.640625 -2.625 -9.640625l0 -80.78125q0 -6.40625 3.125 -9.453125q3.125 -3.046875 9.375 -3.046875q7.53125 0 11.59375 5.59375q4.0625 5.578125 4.0625 15.328125l-3.703125 4.515625l-0.375 -0.28125q-1.3125 -4.453125 1.546875 -8.4375q2.859375 -4.0 7.09375 -7.75q4.234375 -3.765625 10.03125 -6.359375q5.8125 -2.609375 13.28125 -2.609375l2.296875 0q6.578125 0 9.78125 3.21875q3.21875 3.21875 3.484375 9.1875z" fill-rule="nonzero"/><path fill="#ffffff" d="m698.2504 150.22249l0.59375 0.15625q-3.90625 11.90625 -13.140625 16.84375q-9.234375 4.9375 -21.734375 4.9375q-7.953125 0 -14.234375 -2.109375q-6.265625 -2.109375 -10.671875 -6.171875q-4.40625 -4.078125 -6.578125 -9.75q-2.171875 -5.6875 -2.171875 -12.46875q0 -7.0 2.4375 -14.0q2.453125 -7.015625 8.71875 -12.53125q6.28125 -5.53125 16.5625 -8.703125q10.296875 -3.1875 25.75 -3.1875l10.265625 0l0 -1.390625q0 -6.1875 -0.984375 -10.140625q-0.96875 -3.953125 -2.65625 -6.03125q-1.6875 -2.078125 -4.5625 -3.0625q-2.859375 -0.984375 -7.328125 -0.984375q-7.96875 0 -14.21875 6.890625q-7.53125 8.21875 -14.96875 8.21875q-5.140625 0 -8.0625 -3.15625q-2.90625 -3.15625 -2.90625 -7.609375q0 -5.625 4.53125 -9.484375q4.53125 -3.859375 10.75 -6.15625q6.21875 -2.3125 13.703125 -3.515625q7.484375 -1.203125 15.09375 -1.203125q11.25 0 19.03125 2.453125q7.796875 2.453125 12.6875 7.640625q4.90625 5.171875 6.765625 12.59375q1.859375 7.40625 1.859375 16.90625l0 53.6875q0 6.0 -2.625 9.640625q-2.625 3.625 -9.109375 3.625q-8.640625 0 -12.34375 -5.796875q-3.6875 -5.796875 -0.453125 -16.140625zm-4.0 -30.609375l-7.3125 0q-28.078125 0 -28.078125 19.28125q0 12.0 12.953125 12.0q3.109375 0 7.09375 -1.25q4.0 -1.25 7.46875 -3.6875q3.46875 -2.453125 5.671875 -5.921875q2.203125 -3.484375 2.203125 -8.03125l0 -12.390625z" fill-rule="nonzero"/><path fill="#ffffff" d="m790.0627 35.144363l0 119.640625q0 4.71875 -0.875 8.109375q-0.875 3.390625 -3.1875 5.640625q-2.3125 2.234375 -5.484375 2.9375q-3.171875 0.6875 -7.0625 0.6875q-6.671875 0 -9.296875 -3.625q-2.625 -3.640625 -2.625 -9.640625l0 -130.54688q0 -6.234375 2.640625 -9.75q2.65625 -3.515625 9.28125 -3.515625q8.5625 0 12.578125 5.015625q4.03125 5.0 4.03125 15.046875z" fill-rule="nonzero"/><path fill="#ffffff" d="m863.73596 83.00374l0 71.78125q0 4.71875 -0.875 8.109375q-0.875 3.390625 -3.1875 5.640625q-2.3125 2.234375 -5.484375 2.9375q-3.171875 0.6875 -7.0625 0.6875q-6.671875 0 -9.296875 -3.625q-2.625 -3.640625 -2.625 -9.640625l0 -80.015625q0 -6.0 2.625 -9.625q2.625 -3.640625 9.296875 -3.640625q8.15625 0 12.375 4.4375q4.234375 4.421875 4.234375 12.953125zm-26.109375 -26.6875q-4.71875 -4.734375 -4.71875 -11.5q0 -3.21875 1.265625 -6.21875q1.28125 -3.0 3.453125 -5.15625q2.171875 -2.171875 5.09375 -3.515625q2.9375 -1.34375 6.328125 -1.34375q3.265625 0 6.25 1.34375q3.0 1.328125 5.15625 3.5q2.15625 2.15625 3.484375 5.15625q1.328125 2.984375 1.328125 6.234375q0 3.328125 -1.28125 6.28125q-1.265625 2.9375 -3.484375 5.15625q-2.21875 2.21875 -5.171875 3.515625q-2.953125 1.28125 -6.28125 1.28125q-6.671875 0 -11.421875 -4.734375z" fill-rule="nonzero"/><path fill="#ffffff" d="m896.9093 76.78499q0 -8.828125 10.078125 -9.4375l7.3125 0q0.234375 -5.921875 1.796875 -13.21875q1.5625 -7.3125 3.90625 -12.765625q2.34375 -5.46875 5.375 -9.234375q3.03125 -3.78125 6.125 -6.34375q13.0 -10.703125 31.03125 -10.703125q4.71875 0 8.78125 1.046875q4.0625 1.046875 7.203125 2.890625q3.140625 1.828125 5.234375 4.625q2.09375 2.78125 2.09375 6.234375q0 4.984375 -3.328125 7.984375q-3.3125 2.984375 -8.609375 2.984375q-6.046875 0 -11.953125 -7.234375q-1.0625 -1.3125 -2.65625 -1.953125q-1.59375 -0.65625 -3.5625 -0.65625q-2.484375 0 -4.71875 0.890625q-2.21875 0.890625 -4.078125 3.296875q-1.84375 2.390625 -3.15625 7.140625q-1.296875 4.75 -1.296875 12.4375l0 12.578125l17.75 0q4.78125 0 7.8125 2.265625q3.046875 2.25 3.046875 6.109375q0 4.03125 -3.171875 6.640625q-3.15625 2.609375 -7.6875 2.609375l-17.75 0l0 69.8125q0 4.71875 -0.890625 8.125q-0.875 3.390625 -3.1875 5.625q-2.3125 2.234375 -5.484375 2.9375q-3.171875 0.6875 -7.046875 0.6875q-6.421875 0 -9.1875 -3.59375q-2.75 -3.59375 -2.75 -9.671875l0 -73.921875l-6.640625 0q-10.390625 0 -10.390625 -8.1875z" fill-rule="nonzero"/><path fill="#ffffff" d="m1094.7975 80.86311l-33.90625 87.1875q-1.953125 4.84375 -4.25 10.1875q-2.296875 5.34375 -5.203125 10.46875q-2.890625 5.140625 -6.390625 9.859375q-3.484375 4.71875 -7.71875 8.46875q-4.21875 3.75 -9.359375 6.015625q-5.140625 2.265625 -11.078125 2.265625q-5.375 0 -9.46875 -3.078125q-4.078125 -3.078125 -4.078125 -8.078125q0 -12.875 14.703125 -12.875q4.671875 0 7.6875 -1.21875q3.03125 -1.203125 5.3125 -3.71875q2.296875 -2.515625 4.265625 -6.953125q1.96875 -4.421875 3.484375 -9.359375l-38.15625 -88.921875q-0.609375 -1.3125 -1.015625 -2.796875q-0.390625 -1.484375 -0.390625 -3.359375q0 -9.34375 11.34375 -9.34375q6.25 0 11.5 3.96875q5.265625 3.96875 8.359375 11.71875l22.921875 64.078125l-1.046875 0.078125l8.953125 -34.21875q1.515625 -4.328125 3.78125 -11.828125q2.28125 -7.5 5.328125 -18.4375q1.734375 -6.484375 5.078125 -10.921875q3.34375 -4.4375 10.25 -4.4375q10.296875 0 10.296875 8.578125q0 3.1875 -1.203125 6.671875z" fill-rule="nonzero"/><path fill="#ffffff" d="m1115.0079 152.50394l0 0c0 -10.489059 8.503052 -18.992126 18.992065 -18.992126l0 0c5.0369873 0 9.867798 2.000946 13.429443 5.562668c3.5617676 3.5617065 5.562622 8.392441 5.562622 13.429459l0 0c0 10.489059 -8.503052 18.992126 -18.992065 18.992126l0 0c-10.489014 0 -18.992065 -8.503067 -18.992065 -18.992126z" fill-rule="evenodd"/></g></svg>